<svg width="50" height="50" viewBox="0 0 50 50" fill="none" xmlns="http://www.w3.org/2000/svg">
<path d="M8.4375 43.75C7.8125 43.75 7.29167 43.5417 6.875 43.125C6.45833 42.7083 6.25 42.1875 6.25 41.5625V33.125C6.25 32.6389 6.40625 32.2132 6.71875 31.8479C7.03125 31.484 7.43056 31.25 7.91667 31.1458L15.1042 29.6875C15.5903 29.6181 16.0854 29.6611 16.5896 29.8167C17.0924 29.9736 17.5 30.2083 17.8125 30.5208L22.7083 35.4167C25.3472 33.8194 27.7604 31.9271 29.9479 29.7396C32.1354 27.5521 33.9583 25.2083 35.4167 22.7083L30.4167 17.6042C30.1042 17.2917 29.9042 16.9354 29.8167 16.5354C29.7306 16.1368 29.7222 15.6944 29.7917 15.2083L31.1458 7.91667C31.2153 7.43056 31.441 7.03125 31.8229 6.71875C32.2049 6.40625 32.6389 6.25 33.125 6.25H41.5625C42.1875 6.25 42.7083 6.45833 43.125 6.875C43.5417 7.29167 43.75 7.8125 43.75 8.4375C43.75 12.9167 42.7514 17.2826 40.7542 21.5354C38.7583 25.7896 36.1194 29.5569 32.8375 32.8375C29.5569 36.1194 25.7903 38.7583 21.5375 40.7542C17.2833 42.7514 12.9167 43.75 8.4375 43.75Z" fill="black"/>
</svg>
