<svg width="50" height="50" viewBox="0 0 50 50" fill="none" xmlns="http://www.w3.org/2000/svg">
<path d="M8.33332 41.6667C7.18749 41.6667 6.20693 41.259 5.39166 40.4438C4.57499 39.6271 4.16666 38.6458 4.16666 37.5V12.5C4.16666 11.3542 4.57499 10.3736 5.39166 9.55834C6.20693 8.74167 7.18749 8.33334 8.33332 8.33334H41.6667C42.8125 8.33334 43.7937 8.74167 44.6104 9.55834C45.4257 10.3736 45.8333 11.3542 45.8333 12.5V37.5C45.8333 38.6458 45.4257 39.6271 44.6104 40.4438C43.7937 41.259 42.8125 41.6667 41.6667 41.6667H8.33332ZM25 27.0833L41.6667 16.6667V12.5L25 22.9167L8.33332 12.5V16.6667L25 27.0833Z" fill="black"/>
</svg>
